<?xml version="1.0" standalone="no"?>
<!DOCTYPE svg PUBLIC "-//W3C//DTD SVG 20010904//EN"
 "http://www.w3.org/TR/2001/REC-SVG-20010904/DTD/svg10.dtd">
<svg version="1.0" xmlns="http://www.w3.org/2000/svg"
 width="611.000000pt" height="1024.000000pt" viewBox="0 0 611.000000 1024.000000"
 preserveAspectRatio="xMidYMid meet">

<g transform="translate(0.000000,1024.000000) scale(0.100000,-0.100000)"
fill="#000000" stroke="none">
<path d="M2530 8994 c-136 -24 -250 -57 -357 -105 -89 -40 -245 -132 -316
-186 -136 -105 -277 -274 -359 -432 -39 -75 -41 -82 -30 -118 20 -65 65 -122
216 -271 80 -79 146 -150 146 -157 0 -8 -9 -29 -19 -47 -11 -18 -34 -76 -52
-128 -28 -82 -32 -110 -33 -200 -2 -173 34 -261 152 -380 83 -82 204 -172 265
-197 20 -8 37 -19 37 -23 0 -5 -34 -16 -76 -26 -95 -21 -148 -14 -236 29 -38
18 -68 32 -68 30 0 -9 65 -60 108 -85 25 -15 68 -32 95 -39 l48 -11 -28 -18
c-49 -29 -120 -109 -153 -172 -32 -60 -36 -91 -5 -45 21 33 111 101 159 121
21 9 36 12 34 8 -2 -4 -17 -34 -34 -67 -46 -87 -60 -180 -45 -296 16 -127 27
-139 36 -43 7 81 38 199 55 209 5 3 3 -13 -5 -35 -16 -46 -21 -150 -10 -223 9
-61 25 -71 25 -15 0 60 17 170 31 204 12 28 12 28 20 -29 10 -68 61 -176 102
-214 27 -26 29 -26 18 -5 -15 29 -41 112 -41 132 0 8 15 -15 34 -52 18 -36 47
-84 65 -105 17 -20 31 -45 31 -54 0 -12 6 -16 20 -12 15 4 17 9 10 23 -10 19
-2 140 9 140 3 -1 19 -21 34 -46 47 -73 129 -157 138 -142 7 10 9 9 9 -3 0 -9
9 -24 20 -34 11 -10 20 -13 20 -7 0 6 -5 14 -11 18 -27 16 -120 247 -105 261
3 3 22 -11 43 -31 21 -20 64 -50 96 -67 53 -28 58 -33 53 -58 -6 -25 -6 -25 9
-6 12 14 15 36 13 76 l-3 55 60 -38 c33 -22 63 -47 67 -56 6 -15 7 -15 7 1 1
14 6 17 22 12 15 -5 19 -4 15 4 -4 6 -13 11 -21 11 -14 0 -31 37 -22 47 3 3
16 -2 29 -11 36 -25 44 -19 15 12 -32 33 -35 47 -8 32 33 -17 47 -11 21 10
-20 16 -21 20 -8 20 10 0 34 -17 54 -37 l37 -37 -24 -8 c-58 -19 -118 -184
-106 -289 6 -48 5 -49 -21 -49 -68 -1 -182 -83 -222 -161 -52 -100 -60 -211
-24 -348 19 -76 121 -312 165 -384 l31 -50 -31 -60 c-17 -33 -31 -66 -31 -73
0 -17 3 -17 -67 1 -80 21 -118 13 -193 -46 -35 -27 -69 -49 -76 -49 -7 0 -42
-14 -80 -30 -37 -17 -68 -29 -68 -28 -1 2 -10 28 -19 59 -26 87 -128 223 -211
281 l-31 23 37 -51 c36 -51 68 -107 68 -119 0 -4 -19 17 -42 46 -118 150 -276
269 -426 320 -71 25 -85 24 -43 -2 45 -27 65 -52 100 -125 57 -118 63 -313 15
-478 -16 -58 -18 -133 -3 -195 18 -81 1 -53 -32 51 -24 75 -34 128 -37 196 -2
52 -8 90 -13 85 -9 -10 -29 -213 -29 -303 0 -129 53 -287 122 -366 24 -27 27
-34 12 -26 -27 15 -94 88 -124 137 -34 55 -38 24 -6 -49 36 -81 84 -144 139
-181 l47 -32 -34 -24 c-32 -22 -106 -120 -106 -141 0 -4 23 9 50 31 70 55 169
82 157 43 -3 -9 -26 -77 -51 -151 -25 -74 -46 -142 -46 -152 0 -48 173 -365
307 -563 80 -118 228 -298 312 -381 59 -58 59 -62 6 -180 -33 -72 -36 -75
-134 -139 -168 -110 -241 -195 -244 -283 l-2 -47 -140 -71 c-137 -70 -395
-163 -460 -166 -16 -1 -84 17 -150 40 -66 22 -130 41 -143 41 -61 0 -152 -78
-152 -131 0 -22 -7 -32 -32 -45 -118 -60 -205 -145 -194 -188 5 -20 16 -26 67
-35 34 -6 64 -13 66 -15 3 -3 -9 -34 -26 -70 -43 -91 -44 -165 -2 -207 26 -25
37 -29 88 -29 32 0 100 11 152 25 244 66 331 52 331 -54 0 -67 21 -87 104 -95
101 -11 244 10 385 56 128 42 415 181 504 244 53 39 57 40 57 19 0 -22 34 -18
91 10 72 37 129 91 129 124 0 19 17 43 61 86 82 81 143 164 190 258 32 64 41
92 46 156 5 66 3 83 -13 110 -23 39 -82 68 -156 77 l-57 7 16 31 c25 47 22
140 -5 169 -30 32 -28 37 13 37 63 0 174 69 328 203 70 62 75 64 162 80 50 9
123 28 164 42 41 14 78 25 83 25 9 0 -1 -28 -39 -108 -51 -110 -65 -125 -139
-152 -48 -18 -83 -39 -118 -72 -49 -47 -49 -47 -43 -97 l6 -51 -44 -26 c-72
-42 -106 -93 -112 -167 -8 -90 23 -145 148 -271 55 -55 99 -105 99 -111 0 -25
43 -66 106 -101 35 -19 69 -34 76 -32 7 3 45 -10 85 -29 77 -35 234 -87 296
-98 20 -3 37 -9 37 -13 0 -4 -9 -45 -20 -92 -28 -121 -26 -143 11 -174 75 -64
121 -20 159 149 l26 120 64 6 c101 8 165 36 216 92 24 27 42 54 41 60 -1 9 49
11 198 10 232 -3 288 6 371 61 50 33 74 66 74 100 0 7 -23 36 -50 65 -27 29
-50 56 -50 61 0 4 16 17 35 29 20 12 35 28 35 39 0 43 -104 101 -232 129 -58
12 -78 21 -78 32 0 19 -31 48 -66 62 -49 18 -92 10 -181 -37 -82 -42 -92 -45
-143 -39 -96 11 -92 -9 -44 213 150 686 144 660 184 735 42 80 109 293 137
435 17 88 19 94 53 115 19 12 48 27 65 32 25 8 39 27 81 112 28 56 64 121 80
144 l28 41 -23 19 c-30 24 -48 24 -90 -2 -31 -19 -33 -19 -27 -2 4 10 12 54
19 98 10 73 14 84 53 126 76 83 84 112 63 236 -12 68 -11 69 24 143 50 105 87
239 87 315 0 55 -5 72 -37 127 -20 35 -56 88 -79 118 -22 30 -80 108 -128 173
-101 137 -148 191 -370 415 -148 151 -365 346 -422 382 -13 8 -38 41 -55 74
-42 77 -96 136 -153 165 -25 12 -46 25 -46 29 1 4 17 17 37 30 26 17 34 19 30
7 -9 -21 3 -19 30 7 22 21 24 21 18 3 -5 -14 2 -10 22 12 l29 32 25 -32 26
-32 7 52 c3 29 18 71 32 95 22 38 24 40 18 13 -3 -16 -13 -40 -20 -52 -26 -42
-14 -37 31 12 25 28 48 58 51 69 5 15 8 16 15 5 6 -10 11 -6 18 14 6 16 11 34
11 41 0 14 228 180 483 351 l178 119 -23 17 -23 18 26 28 c30 31 89 138 89
160 0 23 -24 25 -101 5 l-74 -20 -7 57 c-8 68 -20 102 -60 163 -38 61 -82 88
-140 88 -86 0 -154 -76 -165 -184 -6 -56 -25 -78 -47 -56 -8 8 -6 9 7 5 9 -4
17 -5 17 -1 0 3 -29 20 -65 37 -57 29 -65 36 -65 61 0 36 -40 116 -71 143
l-23 20 19 -30 c26 -41 25 -143 -1 -162 -29 -21 -38 -11 -54 63 -9 38 -24 90
-34 116 -18 47 -18 48 3 100 26 66 44 172 36 216 -12 66 -73 91 -138 57 -27
-14 -31 -13 -62 11 l-33 25 29 65 c17 36 41 109 55 162 47 174 22 361 -52 394
-38 18 -101 -3 -229 -75 -140 -78 -260 -137 -279 -137 -37 0 -82 326 -72 523
6 116 5 118 -18 141 -82 75 -219 115 -416 121 -80 2 -156 2 -170 -1z m-180
-74 c-23 -15 -6 -20 20 -7 23 12 25 12 26 -12 1 -14 -1 -20 -3 -13 -3 6 -12
12 -21 12 -11 0 -13 -3 -6 -8 7 -4 12 -46 13 -107 1 -55 8 -131 16 -170 7 -38
11 -73 9 -77 -3 -4 0 -25 5 -47 6 -27 5 -41 -1 -41 -6 0 -5 -6 2 -15 9 -10 9
-15 1 -15 -6 0 -10 -6 -9 -12 4 -19 -41 -10 -64 12 -12 11 -17 24 -13 31 5 7
4 10 -3 5 -6 -3 -13 6 -17 24 -4 16 -10 30 -13 30 -4 0 -18 21 -32 48 -14 26
-30 53 -37 60 -7 7 -13 19 -13 26 0 8 -7 19 -15 26 -32 27 -51 166 -25 187 18
15 30 16 30 3 0 -5 -7 -10 -17 -10 -9 0 -13 -3 -9 -7 9 -9 77 27 71 37 -5 8
30 20 55 19 10 0 8 -3 -5 -9 -16 -7 -17 -9 -3 -9 22 -1 32 15 16 25 -9 6 -5
10 12 15 36 10 47 10 30 -1z m1340 -520 c-8 -5 -21 -10 -29 -10 -19 0 -125
-54 -188 -96 -57 -37 -176 -94 -199 -94 -8 0 -14 -4 -14 -9 0 -5 -8 -11 -17
-14 -10 -3 -78 -26 -150 -51 -73 -25 -174 -53 -225 -62 -115 -20 -314 -19
-463 1 -188 25 -218 19 -300 -61 -24 -24 -47 -44 -50 -44 -7 0 -40 -37 -85
-96 -59 -78 -72 -91 -44 -44 29 47 142 186 171 209 10 8 30 25 45 39 39 36 96
43 215 26 177 -24 404 -29 512 -10 188 34 433 129 621 241 120 72 146 84 180
84 26 1 31 -2 20 -9z m44 -16 c9 -24 2 -26 -12 -4 -7 11 -8 20 -3 20 5 0 12
-7 15 -16z m-1279 -14 c-3 -5 -16 -10 -28 -10 -18 0 -19 2 -7 10 20 13 43 13
35 0z m-19 -20 c16 0 23 -10 33 -52 7 -29 19 -72 27 -96 20 -60 18 -72 -10
-72 -40 0 -86 12 -80 21 3 5 -2 9 -10 9 -9 0 -18 10 -20 23 -12 57 -17 83 -19
100 -1 10 -13 25 -27 32 l-25 14 35 15 c19 9 44 14 55 11 11 -3 29 -5 41 -5z
m856 -430 c142 -16 322 -82 414 -152 l32 -24 -40 -33 c-21 -18 -37 -36 -34
-39 3 -3 17 6 30 20 35 35 122 80 148 76 38 -5 63 -52 60 -113 -2 -55 -36
-180 -51 -189 -5 -3 -23 22 -41 56 -31 58 -32 62 -15 75 11 7 28 13 39 13 16
0 17 3 8 12 -43 43 -281 -188 -317 -307 -4 -11 2 -6 12 10 l18 30 6 -95 c7
-100 28 -205 54 -266 20 -49 19 -54 -10 -54 -38 0 -84 -22 -142 -69 -29 -22
-55 -41 -58 -41 -3 0 -5 19 -5 43 0 47 -36 196 -73 302 -78 221 -193 401 -293
460 -56 33 -94 29 -141 -15 -43 -41 -100 -159 -119 -250 -38 -178 20 -528 132
-792 17 -43 28 -78 23 -78 -27 0 -138 55 -228 113 -119 76 -153 87 -183 60
-40 -36 -51 -72 -45 -151 5 -60 12 -84 39 -128 18 -30 47 -65 65 -77 18 -12
31 -28 28 -35 -3 -7 0 -10 6 -7 6 4 18 0 27 -8 9 -8 33 -22 52 -32 19 -10 45
-29 58 -44 19 -20 22 -22 17 -7 -6 19 -5 19 15 1 15 -13 17 -21 8 -26 -14 -9
-38 2 -58 25 -17 21 -31 20 -23 -1 9 -27 54 -85 61 -79 3 3 -3 15 -13 26 -16
17 -16 20 -3 15 28 -11 34 -55 8 -55 -19 0 -70 54 -99 104 -31 55 -47 73 -58
62 -4 -3 5 -19 19 -34 35 -37 56 -81 64 -133 l6 -44 -39 63 c-37 61 -136 172
-153 172 -5 0 0 -18 11 -40 10 -21 19 -43 19 -47 0 -14 92 -114 98 -108 4 3 2
9 -4 13 -16 10 -95 124 -90 130 6 5 75 -72 108 -121 15 -23 25 -43 22 -46 -3
-3 -9 1 -13 8 -5 7 -14 11 -20 7 -28 -18 -142 84 -180 162 -26 52 -37 56 -15
5 9 -21 23 -69 31 -108 9 -38 30 -101 48 -140 19 -38 32 -72 29 -74 -5 -6 -69
68 -111 128 -18 25 -45 77 -59 116 -15 38 -29 64 -31 58 -3 -7 0 -21 6 -32 14
-25 14 -158 1 -166 -6 -4 -10 8 -10 29 0 24 -5 36 -14 36 -14 0 -18 12 -32 95
-10 58 3 38 20 -31 8 -32 15 -50 15 -39 1 28 -28 138 -40 149 -18 19 -9 -117
12 -174 32 -87 33 -94 21 -86 -22 13 -86 140 -104 204 -9 36 -20 67 -23 70 -5
5 1 -82 10 -157 5 -43 -5 -31 -34 38 -13 31 -25 86 -28 127 l-6 74 -23 -49
c-13 -27 -29 -84 -36 -128 l-13 -78 -3 63 c-3 56 16 157 43 237 6 16 3 16 -14
-5 -35 -41 -50 -74 -75 -172 l-24 -93 -1 115 c0 105 2 121 29 183 16 38 41 84
55 103 16 21 21 34 13 34 -22 0 -131 -56 -165 -84 -41 -35 -42 -26 -3 28 37
50 97 103 153 132 l41 22 -69 4 c-39 3 -87 13 -109 22 -45 20 -41 33 5 17 48
-16 157 -13 216 7 60 21 134 75 158 115 21 36 14 47 -9 13 -18 -28 -56 -66
-66 -66 -7 0 -35 59 -44 95 -26 94 -23 304 5 356 5 10 6 19 1 19 -14 0 -59
-52 -87 -100 -22 -39 -25 -41 -19 -15 13 60 64 151 110 198 26 26 51 47 55 47
4 0 9 6 12 14 6 16 -25 8 -100 -25 -24 -10 -43 -15 -43 -11 0 9 95 67 134 82
15 5 24 15 21 20 -9 15 52 94 132 171 119 114 230 188 365 239 45 17 91 27
258 53 50 8 167 7 252 -3z m-1427 -209 c-8 -17 -18 -31 -21 -31 -3 0 -4 3 -2
8 21 43 32 61 35 58 3 -2 -3 -18 -12 -35z m1165 -86 c120 -62 321 -477 353
-727 l11 -86 -55 -69 c-31 -37 -72 -90 -92 -116 -41 -55 -65 -76 -122 -104
-52 -27 -99 -36 -138 -29 -29 6 -35 14 -65 84 -64 150 -116 360 -141 564 -12
99 2 216 35 310 59 162 127 218 214 173z m750 -85 c38 -53 100 -200 115 -271
l15 -70 -36 -36 c-53 -53 -86 -133 -90 -218 -3 -79 -1 -78 -79 -38 -68 35 -86
63 -41 63 37 0 52 22 66 94 20 105 -13 215 -73 247 -14 8 -24 3 -47 -20 l-30
-29 0 66 c0 64 2 70 40 117 41 50 119 124 132 125 4 0 16 -13 28 -30z m663
-199 c48 -42 96 -143 103 -217 l6 -61 -33 -13 c-19 -7 -63 -27 -99 -43 -58
-27 -67 -28 -90 -16 -14 8 -37 38 -52 68 -33 64 -38 164 -12 226 8 20 13 39
10 42 -10 10 -37 -74 -43 -134 -5 -50 -2 -72 17 -117 12 -30 28 -60 36 -67 8
-6 11 -16 7 -22 -3 -5 -1 -7 4 -4 6 4 16 0 23 -8 10 -12 9 -16 -5 -21 -20 -8
-44 4 -59 30 -8 14 -8 20 1 23 15 6 -15 73 -33 73 -28 0 -25 127 5 195 16 37
51 77 51 60 0 -5 8 -1 18 7 43 38 101 37 145 -1z m-425 -95 c-2 -16 -9 -31
-16 -34 -9 -3 -12 4 -8 25 2 15 5 42 6 58 1 30 1 30 11 5 6 -13 9 -38 7 -54z
m-333 -39 c0 -26 -20 -25 -23 2 -3 16 1 22 10 19 7 -3 13 -12 13 -21z m264
-34 c-7 -10 -15 -20 -16 -22 -2 -2 -3 5 -3 17 0 14 6 22 16 22 14 0 15 -3 3
-17z m66 7 c-3 -5 -1 -10 4 -10 6 0 11 5 11 10 0 6 8 10 18 10 14 0 15 -2 2
-10 -11 -7 -8 -10 16 -10 17 0 37 -7 44 -15 11 -13 8 -15 -21 -15 l-34 0 43
-21 c42 -21 80 -72 97 -128 7 -24 6 -24 -34 8 -45 36 -52 33 -21 -6 11 -14 20
-22 20 -18 0 5 9 0 20 -10 14 -12 20 -30 19 -54 l-2 -36 -7 35 c-4 19 -8 31
-9 26 0 -6 -15 3 -31 19 l-30 29 20 -59 c23 -67 23 -68 10 -60 -5 3 -10 -1
-10 -11 0 -14 -8 -15 -57 -9 -32 4 -59 8 -60 9 -2 1 2 18 7 37 16 54 12 140
-8 179 -15 31 -21 35 -55 33 -48 -3 -49 15 -2 56 34 30 63 42 50 21z m-109
-59 c-34 -39 -57 -103 -57 -161 -1 -44 -5 -62 -20 -76 -17 -16 -19 -16 -25 0
-4 10 -4 47 -2 84 5 72 32 138 76 185 26 27 26 28 34 6 6 -15 4 -27 -6 -38z
m248 -16 c9 -14 15 -25 13 -25 -2 0 -14 11 -27 25 -13 14 -19 25 -13 25 6 0
18 -11 27 -25z m-259 -130 c-14 -30 -28 -55 -32 -55 -13 0 6 101 28 146 l24
49 3 -43 c2 -30 -4 -59 -23 -97z m298 115 c3 -11 3 -20 1 -20 -2 0 -8 9 -14
20 -6 11 -7 20 -2 20 6 0 12 -9 15 -20z m-187 -15 c23 -35 18 -205 -6 -205
-14 0 -28 24 -32 55 l-4 30 -9 -29 c-7 -26 -4 -33 23 -58 18 -15 52 -33 77
-39 45 -11 46 -12 23 -27 -13 -9 -41 -31 -62 -49 -22 -18 -47 -33 -56 -33 -34
0 -70 56 -89 141 -7 30 -5 41 7 51 22 19 55 98 54 130 0 18 7 33 21 43 29 20
34 19 53 -10z m714 7 c0 -19 -55 -112 -74 -124 -6 -4 -8 -8 -4 -8 5 0 -2 -11
-14 -25 -12 -14 -31 -25 -42 -24 -18 1 -18 2 3 8 25 7 42 31 21 31 -6 0 -8 4
-5 10 3 6 -1 7 -9 4 -9 -3 -13 -11 -10 -16 4 -6 -2 -8 -17 -3 -18 5 -20 4 -9
-4 11 -8 -4 -19 -72 -51 -47 -22 -91 -40 -97 -40 -6 0 -10 -6 -9 -12 2 -7 -5
-12 -15 -11 -12 0 -16 -4 -13 -12 3 -9 0 -12 -8 -9 -8 3 -17 0 -22 -7 -5 -8
-3 -10 7 -5 8 4 3 -2 -11 -13 -24 -20 -36 -25 -53 -22 -5 1 -6 -3 -3 -8 7 -11
-20 -35 -32 -27 -5 3 -18 -1 -28 -10 -18 -14 -17 -14 6 -4 l25 11 -24 -20
c-12 -12 -28 -18 -34 -14 -6 3 -7 1 -3 -5 4 -7 2 -12 -3 -12 -6 0 -21 -11 -33
-25 -12 -14 -26 -25 -32 -25 -6 0 -4 5 4 10 10 7 11 10 2 10 -7 0 -17 -11 -21
-23 -5 -13 -24 -31 -43 -40 -46 -23 -95 -57 -82 -57 6 0 24 9 40 21 16 11 11
5 -10 -14 -23 -20 -46 -33 -55 -30 -12 4 -13 3 -3 -4 10 -8 9 -13 -4 -24 -12
-9 -15 -10 -10 -1 4 6 3 12 -2 12 -5 0 -14 -11 -20 -24 -6 -14 -21 -30 -34
-36 l-23 -11 24 20 c13 12 18 21 12 21 -6 0 -21 -10 -32 -21 -17 -17 -19 -23
-8 -30 10 -6 6 -9 -12 -9 -28 0 -79 -34 -79 -53 0 -6 5 -4 13 4 6 8 21 21 32
29 11 8 7 0 -10 -17 -16 -17 -34 -29 -40 -27 -5 2 -21 -6 -35 -17 -14 -11 -19
-17 -11 -13 10 5 12 3 7 -5 -5 -7 -15 -10 -23 -7 -8 3 -12 2 -8 -3 3 -5 -9
-21 -26 -35 -31 -27 -56 -35 -43 -14 4 7 3 8 -5 4 -6 -4 -9 -12 -6 -17 4 -5 1
-9 -6 -9 -7 0 -20 -6 -28 -14 -30 -25 -92 -33 -191 -23 -52 5 -97 12 -100 16
-6 7 -24 10 -87 18 -24 3 -43 10 -43 15 0 6 -7 8 -15 4 -8 -3 -15 -1 -15 5 0
6 -9 8 -20 4 -12 -4 -27 -1 -35 5 -8 7 -15 10 -15 6 0 -4 -19 4 -42 16 -24 12
-51 21 -60 19 -10 -1 -18 2 -18 7 0 6 -11 13 -25 16 -14 4 -25 11 -25 17 0 6
-5 7 -11 4 -5 -4 -27 4 -47 18 -21 13 -47 27 -60 31 -12 4 -20 12 -17 17 4 5
1 9 -5 9 -6 0 -8 5 -4 11 4 7 0 9 -13 5 -12 -4 -25 -1 -33 9 -8 10 -9 15 -1
15 6 0 11 -4 11 -10 0 -5 5 -10 11 -10 6 0 9 6 6 14 -5 11 3 13 36 9 34 -3 40
-2 29 9 -8 8 -38 13 -76 13 -35 0 -59 3 -53 7 9 6 9 8 0 8 -7 0 -20 16 -29 35
-21 45 -34 45 -34 -1 0 -28 3 -35 15 -31 8 4 17 1 21 -5 4 -7 3 -8 -4 -4 -7 4
-12 1 -12 -9 0 -9 5 -13 10 -10 6 3 10 2 10 -4 0 -5 -4 -13 -10 -16 -5 -3 -10
-17 -10 -31 0 -13 5 -24 10 -24 6 0 10 8 10 18 0 10 3 21 6 24 5 6 159 -96
169 -112 3 -5 12 -7 20 -3 8 3 15 0 15 -6 0 -6 7 -11 16 -11 8 0 12 -5 8 -11
-4 -8 1 -9 16 -4 14 5 20 3 16 -3 -7 -11 46 -34 84 -36 14 -1 38 -5 53 -10 22
-7 26 -11 15 -18 -9 -7 -7 -8 10 -5 12 3 22 1 22 -3 0 -5 8 -9 18 -9 27 1 73
-9 127 -25 28 -9 68 -16 91 -16 22 0 44 -3 47 -7 4 -3 45 -7 91 -7 47 -1 79 3
73 7 -7 5 0 6 16 3 18 -4 26 -2 25 5 -2 6 3 14 11 17 10 3 11 0 5 -9 -7 -12
-5 -12 9 0 9 7 14 17 11 22 -3 5 1 6 9 3 8 -3 17 2 20 10 4 9 11 16 17 16 6 0
8 -6 5 -12 -4 -7 0 -5 9 6 8 10 19 15 24 12 5 -3 16 2 23 12 13 15 12 16 -3 4
-11 -9 -18 -10 -23 -2 -4 6 -3 10 2 9 15 -4 43 13 37 23 -3 5 0 8 8 6 17 -4
80 47 70 56 -3 4 1 4 9 1 9 -3 22 1 29 10 11 13 10 15 -6 9 -15 -5 -16 -4 -4
4 8 7 19 7 25 2 6 -5 17 -5 25 2 12 8 12 9 -2 4 -11 -3 -18 0 -18 8 0 8 10 13
23 12 31 -3 40 4 26 20 -9 11 -8 14 5 14 10 0 14 4 11 10 -4 6 1 7 11 3 12 -4
15 -3 10 5 -4 7 -1 12 9 12 10 0 13 5 9 12 -5 7 -2 9 7 6 9 -3 26 3 40 14 21
17 21 18 2 9 -33 -17 -42 -12 -10 5 15 8 31 12 36 10 8 -6 26 21 23 35 -1 4 7
14 17 23 14 13 21 14 27 5 4 -7 3 -10 -3 -6 -6 4 -16 0 -23 -8 -7 -8 -9 -15
-4 -15 18 0 89 46 90 58 1 7 2 17 3 22 0 6 6 10 12 10 5 0 7 -4 4 -10 -3 -5
-4 -10 -1 -10 3 0 12 12 20 28 9 15 16 20 16 12 0 -11 3 -10 11 4 9 15 13 16
21 5 8 -12 9 -11 6 1 -5 16 57 54 72 45 6 -3 7 0 4 8 -3 8 0 18 7 23 8 5 10 3
4 -6 -6 -9 -4 -11 4 -6 7 5 10 14 7 22 -3 8 1 15 12 16 9 0 22 2 29 2 6 1 15
5 20 10 4 5 3 6 -4 3 -6 -4 -13 -1 -16 5 -2 9 -8 10 -18 3 -8 -5 -6 -2 4 8 19
17 21 17 39 0 18 -16 18 -16 12 0 -4 12 -1 17 10 17 9 0 16 5 16 10 0 6 8 10
18 8 11 -2 16 3 14 14 -2 16 32 48 53 48 5 0 3 -5 -5 -10 -21 -14 -8 -12 31 3
19 8 47 11 62 8 25 -5 11 -17 -160 -131 -103 -69 -194 -124 -200 -124 -7 1
-10 -2 -7 -7 3 -5 -8 -17 -23 -26 -37 -23 -276 -194 -283 -202 -23 -27 -102
-81 -111 -75 -7 4 -9 3 -6 -3 9 -14 -29 -47 -43 -38 -6 3 -9 2 -8 -4 3 -12
-128 -111 -147 -111 -8 0 -15 -5 -17 -10 -7 -22 -123 -60 -185 -60 -144 0
-406 46 -564 101 -200 68 -295 136 -348 249 -35 73 -37 174 -5 217 24 31 42
32 83 3 64 -44 190 -117 241 -139 30 -13 93 -29 139 -37 72 -11 85 -11 98 1
15 16 16 16 51 20 24 2 26 -15 2 -23 -7 -3 -10 0 -6 7 4 6 2 11 -3 11 -6 0
-11 -12 -10 -27 0 -16 2 -23 5 -18 6 14 77 11 82 -4 2 -6 21 -11 43 -11 29 0
39 4 39 16 0 13 4 11 18 -7 13 -15 25 -20 37 -16 13 6 15 10 6 21 -9 11 -8 17
4 29 8 9 15 23 15 31 0 9 6 15 13 13 7 -1 13 11 15 28 2 17 11 38 19 47 23 26
10 117 -20 140 -21 16 -21 18 -4 35 10 10 17 13 17 5 0 -7 -4 -12 -10 -12 -5
0 -10 -5 -10 -11 0 -8 5 -8 15 1 8 7 15 21 15 31 0 11 10 27 21 37 12 9 29 24
38 33 37 37 97 69 129 69 18 0 63 -14 100 -32 37 -17 72 -31 78 -31 6 0 21
-26 33 -58 15 -40 36 -71 67 -97 l44 -39 -43 -39 c-42 -38 -156 -174 -171
-204 -8 -16 12 5 127 134 205 229 542 447 812 526 78 23 75 23 75 2z m-495
-82 c-13 -12 -15 -12 -16 0 0 8 -2 24 -4 35 -2 11 1 23 8 27 19 12 30 -44 12
-62z m-542 13 c-3 -7 -6 -13 -8 -13 -2 0 -5 6 -8 13 -3 8 1 14 8 14 7 0 11 -6
8 -14z m577 -58 c15 -16 19 -25 10 -25 -7 0 -22 -7 -32 -17 -17 -15 -18 -14
-18 25 0 49 7 52 40 17z m-80 -80 c0 -5 -5 -3 -10 5 -5 8 -10 20 -10 25 0 6 5
3 10 -5 5 -8 10 -19 10 -25z m-310 -72 c13 -38 23 -72 22 -76 -1 -5 2 -6 6 -3
5 3 17 -3 27 -14 17 -19 17 -20 0 -20 -50 0 -139 148 -103 171 21 14 22 12 48
-58z m-517 -128 c-9 -15 -11 -15 -23 0 -7 8 -10 18 -6 22 3 3 6 1 6 -5 0 -7 5
-12 11 -12 6 0 8 7 4 18 -5 13 -3 14 5 5 8 -7 9 -17 3 -28z m937 31 c0 -2 -8
-10 -17 -17 -16 -13 -17 -12 -4 4 13 16 21 21 21 13z m-60 -41 c-7 -8 -17 -15
-23 -15 -6 0 -2 7 9 15 25 19 30 19 14 0z m-965 -84 c3 -5 2 -12 -3 -15 -5 -3
-9 1 -9 9 0 17 3 19 12 6z m883 -5 c-2 -1 -12 -8 -23 -16 -18 -14 -19 -13 -8
1 7 9 10 19 6 23 -4 4 1 4 10 0 10 -3 17 -7 15 -8z m-923 -35 c-3 -6 -14 -10
-23 -10 -15 1 -15 2 1 6 9 2 17 9 17 15 0 6 3 9 6 5 3 -3 3 -10 -1 -16z m15
-41 c0 -5 -4 -10 -10 -10 -5 0 -10 5 -10 10 0 6 5 10 10 10 6 0 10 -4 10 -10z
m709 -167 c-30 -51 -33 -53 -25 -19 6 25 30 54 44 56 2 0 -7 -17 -19 -37z
m-189 -47 c0 -2 -8 -10 -17 -17 -16 -13 -17 -12 -4 4 13 16 21 21 21 13z m95
-26 c-8 -16 -15 -41 -15 -57 0 -32 -15 -21 -25 18 -5 21 -1 31 21 48 35 28 37
27 19 -9z m-83 -52 c-7 -7 -12 -8 -12 -2 0 14 12 26 19 19 2 -3 -1 -11 -7 -17z
m-974 -93 c-3 -3 -9 2 -12 12 -6 14 -5 15 5 6 7 -7 10 -15 7 -18z m538 -45
c87 -8 133 -8 160 -1 51 14 54 14 54 -6 0 -9 12 -37 28 -62 25 -43 27 -53 27
-161 -1 -136 -15 -190 -50 -190 -41 0 -194 49 -268 86 -71 36 -197 125 -228
161 -9 10 -19 32 -23 48 -9 35 -64 153 -83 176 -11 13 10 11 124 -12 75 -16
191 -33 259 -39z m467 -718 c24 -27 54 -101 62 -153 8 -52 -10 -81 -44 -72
-49 13 -108 173 -82 222 14 26 42 27 64 3z m-2130 -333 c99 -50 177 -111 276
-215 76 -80 102 -116 143 -199 27 -55 48 -93 45 -85 -2 8 -12 42 -22 75 -9 33
-28 87 -41 120 l-24 60 39 -44 c50 -55 101 -158 101 -202 0 -30 -8 -40 -57
-79 -54 -43 -163 -165 -163 -182 0 -5 22 17 49 49 80 97 182 174 281 213 l49
20 -101 -118 c-152 -177 -271 -368 -382 -614 -14 -31 -31 -60 -36 -63 -6 -4
-8 -10 -5 -14 2 -5 -17 -11 -43 -15 -27 -3 -65 -15 -85 -25 -44 -22 -47 -14
-9 21 38 36 69 50 92 43 35 -11 22 2 -32 33 -66 37 -126 95 -157 153 l-24 44
39 -35 c21 -19 41 -37 44 -41 20 -20 150 -105 150 -96 0 2 -29 33 -64 68 -121
121 -167 249 -165 456 l1 118 13 -61 c21 -106 102 -278 162 -341 l25 -28 -18
30 c-32 54 -44 83 -60 141 -27 103 -27 161 -4 274 31 149 36 249 16 344 -17
82 -53 166 -88 204 -28 29 -19 28 55 -9z m2588 -389 c30 -17 153 -80 275 -140
121 -59 225 -114 231 -122 6 -7 11 -41 12 -76 1 -35 9 -94 17 -130 18 -76 14
-109 -18 -161 l-23 -36 -8 45 c-4 25 -11 102 -16 173 -8 117 -18 157 -41 157
-5 0 -3 -12 5 -27 7 -16 16 -75 19 -132 4 -57 9 -108 12 -112 11 -19 5 -111
-9 -132 -21 -32 -149 -158 -155 -153 -2 3 10 28 28 56 27 43 31 56 26 88 -4
20 -11 90 -15 155 -6 88 -13 123 -25 135 -9 10 -16 12 -16 5 0 -7 5 -15 10
-18 6 -3 10 -33 10 -65 0 -33 5 -105 11 -160 l12 -101 -50 -72 c-28 -40 -65
-100 -82 -134 -17 -35 -36 -63 -41 -63 -20 0 -42 51 -42 102 -1 41 6 67 30
115 l32 63 -20 37 c-11 21 -20 49 -20 64 0 33 -28 46 -128 60 -98 13 -162 50
-240 138 l-57 65 -3 81 c-5 106 18 204 63 273 l35 52 64 0 c52 0 73 -5 117
-30z m-132 -697 c0 -25 -1 -25 -8 -8 -5 11 -7 23 -4 28 8 14 13 7 12 -20z
m549 -125 c-21 -118 -68 -248 -106 -291 -8 -9 -12 -20 -9 -23 9 -9 60 76 77
125 24 73 102 122 148 93 10 -7 4 -21 -22 -59 -19 -28 -54 -90 -77 -138 -31
-63 -50 -90 -68 -97 -14 -6 -38 -16 -53 -24 -14 -8 -29 -14 -33 -14 -4 0 -5
80 -2 177 l6 178 66 62 c36 35 69 63 74 63 5 0 4 -24 -1 -52z m-198 -239 c0
-10 -13 -81 -30 -157 -41 -189 -54 -251 -95 -447 -40 -188 -97 -447 -175 -805
-29 -129 -54 -246 -56 -260 -3 -14 -12 -50 -20 -80 -8 -30 -17 -71 -20 -90 -2
-19 -18 -91 -34 -160 -15 -69 -31 -143 -35 -165 -3 -22 -11 -47 -16 -55 -8
-11 -9 -7 -4 15 4 17 7 45 8 63 1 17 4 32 8 32 7 0 18 69 20 129 1 24 4 30 11
20 7 -10 8 -5 3 14 -4 19 -2 26 5 22 6 -4 10 8 11 32 1 48 23 176 29 169 3 -2
4 13 4 35 -1 21 2 36 7 33 5 -3 9 8 9 23 0 33 34 221 49 272 6 19 8 37 6 42
-3 4 -1 10 4 14 6 3 8 12 5 19 -3 8 2 35 10 61 9 25 14 51 11 56 -4 5 -1 9 5
9 7 0 10 7 6 15 -3 8 4 52 16 97 20 82 25 108 32 180 2 20 7 41 10 46 5 8 47
217 59 294 2 10 6 21 10 24 4 4 7 27 7 51 0 23 5 43 10 43 6 0 10 14 10 31 0
40 29 199 41 221 5 9 12 35 15 58 4 22 11 40 16 40 5 0 7 4 4 9 -3 4 1 17 9
27 8 10 15 27 15 37 0 24 20 11 20 -14z m-696 -326 c-3 -43 -9 -121 -14 -173
-4 -52 -5 -153 0 -225 l8 -130 -25 -21 c-89 -75 -394 -194 -563 -219 l-45 -7
72 74 c156 160 202 214 320 378 87 120 146 214 218 348 15 28 29 52 31 52 1 0
0 -35 -2 -77z m-16 -622 c3 -16 6 -20 12 -12 5 8 10 0 14 -24 6 -33 0 -52 -48
-149 -31 -61 -73 -158 -94 -215 -45 -123 -49 -126 -177 -115 -80 6 -162 35
-172 60 -2 7 15 43 40 81 50 78 84 141 125 234 26 59 34 68 63 74 19 4 67 23
106 42 42 19 83 33 95 30 20 -4 20 -4 -4 -6 -27 -1 -51 -21 -26 -21 29 0 58
13 58 25 0 8 -10 16 -22 18 -20 5 -20 5 2 4 18 -2 26 -9 28 -26z m67 -236 c20
-92 30 -115 50 -115 8 0 45 37 83 83 73 86 120 133 125 126 3 -3 -79 -399
-105 -502 l-9 -39 -42 7 c-35 6 -213 69 -226 81 -2 2 11 25 28 51 18 26 34 58
38 71 8 35 -20 87 -56 103 -24 11 -29 18 -25 34 10 32 64 147 87 184 25 41 25
39 52 -84z m-1405 -40 c12 -13 40 -36 62 -51 43 -30 44 -47 1 -19 -24 16 -26
16 -14 2 11 -14 11 -17 0 -17 -11 0 -11 -2 1 -10 8 -5 20 -10 25 -10 6 0 3 5
-5 10 -8 5 -10 10 -5 10 6 0 17 -5 25 -10 8 -5 10 -10 4 -10 -6 0 -16 -24 -23
-54 -7 -30 -17 -56 -23 -58 -7 -3 -9 -11 -3 -24 9 -22 7 -76 -4 -84 -4 -3 -8
-15 -8 -27 -2 -24 12 -28 56 -16 23 6 23 7 5 14 -13 5 -14 8 -4 8 28 2 91 165
67 175 -7 2 -4 5 6 5 9 1 17 8 17 16 0 17 46 17 60 0 8 -10 -53 -211 -70 -228
-13 -14 -151 -46 -240 -56 -136 -15 -197 17 -151 80 34 45 157 287 171 337 7
23 16 42 20 42 4 0 17 -11 30 -25z m166 -153 c-4 -3 -14 2 -24 12 -16 18 -16
18 6 6 13 -6 21 -14 18 -18z m2162 -368 c127 -43 175 -83 135 -111 -10 -8 -25
-20 -35 -27 -9 -8 -18 -12 -20 -10 -3 2 -5 -3 -5 -12 0 -8 16 -27 34 -41 55
-42 82 -114 48 -127 -8 -3 -15 -13 -15 -21 0 -9 -4 -14 -9 -11 -4 3 -16 -3
-26 -14 -12 -13 -25 -18 -38 -14 -14 4 -17 3 -12 -6 6 -10 3 -10 -11 -2 -13 7
-24 6 -41 -5 -13 -9 -27 -13 -31 -9 -3 4 0 11 8 16 8 6 10 10 5 10 -6 0 -18
-9 -28 -20 -9 -11 -25 -20 -34 -19 -16 0 -15 2 2 9 16 7 17 9 3 9 -26 1 -51
-11 -38 -19 6 -3 -68 -6 -165 -5 -135 1 -178 -2 -187 -12 -6 -8 -8 -16 -5 -20
9 -8 -30 -60 -58 -79 -23 -15 -40 -20 -105 -31 -19 -3 -40 -10 -46 -14 -19
-15 -74 1 -74 22 0 13 5 17 18 12 15 -6 15 -5 3 11 -13 15 -11 30 10 118 19
81 28 102 46 111 12 5 20 14 17 18 -3 5 3 6 12 2 12 -4 15 -3 10 5 -5 8 -2 10
8 6 11 -4 16 0 16 11 0 9 5 13 10 10 6 -3 10 -1 10 4 0 6 16 17 35 25 19 8 39
26 44 38 8 22 41 58 41 45 0 -3 12 5 26 18 15 14 34 25 42 25 8 0 13 3 9 6 -3
3 6 16 21 28 42 34 61 44 32 17 l-25 -23 35 19 c19 10 35 25 35 31 0 7 14 21
30 32 46 30 164 28 263 -6z m-1703 -96 c6 -5 7 -8 0 -8 -5 0 1 -6 15 -13 14
-8 24 -19 22 -26 -1 -7 2 -10 7 -7 5 4 12 2 15 -3 7 -11 -20 -34 -33 -27 -14
9 -78 108 -86 136 -7 22 -4 20 21 -10 16 -19 33 -38 39 -42z m-175 -99 c-31
-80 -99 -175 -197 -279 -35 -37 -45 -42 -53 -30 -16 25 -6 43 60 112 99 102
158 175 183 230 29 63 34 38 7 -33z m254 6 c-4 -10 -2 -13 8 -10 8 3 23 -5 34
-17 l19 -23 -25 20 -25 20 18 -22 c11 -12 25 -19 33 -16 8 3 14 -1 14 -10 0
-9 7 -20 15 -25 10 -5 13 -15 9 -25 -3 -9 -10 -14 -15 -11 -5 3 -6 11 -3 17 4
7 4 9 -1 5 -11 -11 -47 11 -39 24 4 6 3 8 -3 5 -13 -8 -36 17 -25 28 4 5 2 5
-4 2 -14 -8 -48 28 -39 42 10 17 35 13 29 -4z m1106 -10 c0 -2 -10 -9 -22 -15
-22 -11 -22 -10 -4 4 21 17 26 19 26 11z m-3013 -71 c-3 -3 -12 -4 -19 -1 -8
3 -5 6 6 6 11 1 17 -2 13 -5z m-250 -81 c-15 -2 -25 -8 -22 -13 3 -4 15 -6 28
-3 14 3 18 2 10 -4 -9 -6 0 -9 25 -10 48 -1 60 -5 102 -31 19 -12 42 -22 51
-22 9 0 34 -8 55 -17 43 -18 43 -18 94 -32 19 -5 31 -9 25 -10 -12 -2 16 -21
30 -21 6 0 3 5 -5 10 -17 11 -10 13 14 4 8 -3 12 -12 9 -20 -3 -9 2 -14 15
-14 12 0 26 -8 32 -17 10 -16 11 -16 7 4 -4 16 -1 20 10 16 8 -3 12 -11 9 -18
-6 -16 38 -36 61 -29 14 5 15 4 4 -4 -11 -8 -10 -12 7 -21 26 -14 35 -14 27
-1 -7 12 -3 12 20 4 13 -5 14 -8 3 -15 -9 -6 -6 -9 11 -9 27 0 111 -39 111
-52 0 -4 8 -8 18 -8 13 0 14 -2 4 -9 -10 -6 -9 -10 7 -14 12 -3 19 -2 16 3 -2
4 11 0 29 -9 18 -9 29 -19 24 -22 -14 -9 9 -22 26 -16 7 3 29 -4 47 -15 25
-16 53 -21 107 -23 39 0 72 3 72 7 0 4 13 8 29 8 16 0 34 7 41 15 14 17 67 45
86 45 7 0 14 6 17 13 3 9 8 8 22 -3 11 -9 16 -10 11 -2 -5 8 0 12 13 12 13 0
21 7 21 16 0 10 6 14 15 10 9 -3 15 0 15 10 0 10 6 14 14 11 7 -3 18 -1 24 5
7 7 14 4 21 -10 9 -17 6 -24 -24 -46 -18 -14 -38 -26 -44 -26 -6 0 -11 -4 -11
-8 0 -18 -357 -190 -455 -220 -157 -47 -358 -76 -402 -57 -10 5 -24 7 -30 6
-7 -1 -13 3 -13 9 0 6 -5 8 -10 5 -17 -10 -29 38 -20 83 4 23 3 39 -1 36 -5
-3 -14 7 -19 21 -7 18 -15 25 -25 21 -18 -7 -20 10 -2 18 6 3 3 4 -8 1 -11 -3
-63 -7 -115 -10 -52 -3 -99 -10 -104 -15 -6 -6 -19 -10 -31 -10 -11 -1 -38 -8
-60 -16 -22 -8 -74 -17 -115 -20 -70 -5 -76 -4 -98 19 -39 42 -39 84 2 178 35
83 36 84 16 103 -10 11 -32 19 -49 19 -17 0 -28 3 -26 7 3 4 -7 6 -20 4 -62
-6 0 79 102 140 34 21 73 39 86 40 14 0 23 4 21 8 -6 9 16 17 46 16 23 -1 23
-1 -3 -5z m60 -9 c-3 -3 -12 -4 -19 -1 -8 3 -5 6 6 6 11 1 17 -2 13 -5z m2439
-69 c10 -8 14 -15 9 -15 -6 0 -17 6 -25 13 -12 10 -12 9 0 -6 7 -10 20 -17 29
-16 28 2 37 -1 59 -21 12 -12 35 -23 50 -25 15 -2 58 -15 97 -29 75 -28 88
-31 65 -16 -9 6 -10 10 -3 10 6 0 20 3 30 7 16 6 17 5 3 -12 -12 -15 -8 -14
19 4 l33 24 -7 -34 c-10 -47 -39 -65 -52 -33 -4 11 -8 12 -13 4 -5 -8 -19 -10
-40 -5 -24 5 -29 10 -19 16 10 7 6 8 -11 4 -22 -5 -76 11 -192 57 -15 5 -25
15 -21 21 4 6 0 8 -9 4 -17 -6 -58 18 -58 34 0 6 4 7 10 4 6 -3 7 1 4 9 -8 20
16 21 42 1z m-2241 -5 c13 -6 15 -9 5 -9 -8 0 -22 4 -30 9 -18 12 -2 12 25 0z
m2750 -125 c-3 -25 -11 -48 -17 -51 -8 -5 -9 -1 -4 12 5 10 11 39 14 64 3 25
7 39 10 32 2 -7 1 -33 -3 -57z m-38 -147 c-3 -8 -6 -5 -6 6 -1 11 2 17 5 13 3
-3 4 -12 1 -19z m-10 -40 c-3 -8 -6 -5 -6 6 -1 11 2 17 5 13 3 -3 4 -12 1 -19z
m-1817 -8 c0 -5 -8 -10 -17 -10 -15 0 -16 2 -3 10 19 12 20 12 20 0z"/>
<path d="M2408 8333 c7 -3 16 -2 19 1 4 3 -2 6 -13 5 -11 0 -14 -3 -6 -6z"/>
<path d="M2812 7855 c-110 -75 -177 -215 -207 -435 -10 -76 6 -36 25 62 30
151 68 236 139 311 81 86 161 97 269 35 55 -31 175 -142 241 -223 18 -22 29
-33 25 -25 -22 42 -123 157 -182 206 -82 67 -136 94 -204 100 -48 5 -57 2
-106 -31z"/>
<path d="M3321 7543 c7 -12 15 -20 18 -17 3 2 -3 12 -13 22 -17 16 -18 16 -5
-5z"/>
<path d="M3040 7296 c-62 -34 -92 -151 -71 -284 14 -92 42 -151 84 -179 57
-39 91 -28 136 47 25 42 28 140 7 242 -17 76 -37 121 -74 161 -29 30 -45 33
-82 13z m93 -182 c-3 -8 -9 -14 -13 -14 -12 0 -23 38 -14 51 10 16 35 -18 27
-37z"/>
<path d="M4160 6961 c0 -5 5 -13 10 -16 6 -3 10 -2 10 4 0 5 -4 13 -10 16 -5
3 -10 2 -10 -4z"/>
<path d="M4500 6905 c-14 -8 -20 -14 -15 -14 6 0 21 6 35 14 14 8 21 14 15 14
-5 0 -21 -6 -35 -14z"/>
<path d="M3423 6552 c-11 -30 -11 -34 12 -44 31 -14 55 -4 55 22 0 17 -4 19
-24 14 -20 -5 -25 -2 -28 18 -3 21 -4 20 -15 -10z"/>
<path d="M2985 6210 c3 -5 11 -10 16 -10 6 0 7 5 4 10 -3 6 -11 10 -16 10 -6
0 -7 -4 -4 -10z"/>
<path d="M3667 2588 c2 -5 -3 -8 -13 -8 -12 0 -14 -3 -6 -12 15 -20 20 -98 6
-98 -7 0 -10 8 -8 18 3 9 1 28 -4 42 l-9 25 -17 -34 c-12 -23 -22 -31 -34 -27
-13 5 -12 2 3 -9 19 -15 19 -16 -3 -22 -13 -3 -25 -16 -28 -32 -4 -14 -10 -30
-14 -36 -5 -5 -11 -27 -15 -47 -4 -20 -13 -39 -21 -42 -9 -4 -12 -15 -8 -36 5
-23 3 -30 -10 -30 -9 0 -16 -4 -16 -8 0 -5 25 -8 55 -8 39 1 54 5 51 13 -3 7
0 18 7 25 7 7 19 22 27 32 14 18 13 19 -2 13 -26 -9 -22 5 7 27 14 10 25 23
25 29 0 5 16 41 35 78 19 38 35 78 35 89 0 12 7 20 16 20 10 0 14 6 10 15 -3
8 -1 15 4 15 6 0 10 3 10 8 0 4 -20 7 -44 7 -24 0 -42 -3 -39 -7z m20 -23 c0
-8 -4 -12 -9 -9 -5 3 -6 10 -3 15 9 13 12 11 12 -6z m-87 -172 c-1 -5 -7 -19
-15 -33 l-14 -25 -1 33 c0 22 5 32 15 32 8 0 15 -3 15 -7z m-40 -92 c0 -30
-17 -34 -22 -6 -4 17 -1 25 8 25 8 0 14 -9 14 -19z m-25 -51 c3 -5 1 -10 -4
-10 -6 0 -11 5 -11 10 0 6 2 10 4 10 3 0 8 -4 11 -10z"/>
<path d="M2498 1953 c7 -3 16 -2 19 1 4 3 -2 6 -13 5 -11 0 -14 -3 -6 -6z"/>
<path d="M4052 1260 c0 -14 2 -19 5 -12 2 6 2 18 0 25 -3 6 -5 1 -5 -13z"/>
<path d="M4108 1263 c7 -3 16 -2 19 1 4 3 -2 6 -13 5 -11 0 -14 -3 -6 -6z"/>
<path d="M4070 1249 c0 -5 5 -7 10 -4 6 3 10 8 10 11 0 2 -4 4 -10 4 -5 0 -10
-5 -10 -11z"/>
<path d="M820 1260 c0 -5 5 -10 11 -10 5 0 7 5 4 10 -3 6 -8 10 -11 10 -2 0
-4 -4 -4 -10z"/>
<path d="M1610 1185 c0 -7 57 -35 72 -35 7 0 -4 9 -25 20 -38 21 -47 23 -47
15z"/>
<path d="M1768 1093 c7 -3 16 -2 19 1 4 3 -2 6 -13 5 -11 0 -14 -3 -6 -6z"/>
<path d="M1847 1059 c7 -7 15 -10 18 -7 3 3 -2 9 -12 12 -14 6 -15 5 -6 -5z"/>
</g>
</svg>
